<svg height="512pt" preserveAspectRatio="xMidYMid meet" viewBox="0 0 512 512" width="512pt" xmlns="http://www.w3.org/2000/svg"><g transform="matrix(.1 0 0 -.1 0 512)"><path d="m964 3222c-56-9-78-98-34-134 65-52 162 20 125 92-15 29-55 48-91 42z"/><path d="m905 2892c-62-26-91-43-93-56-3-16 0-18 30-12 22 4 41 1 53-8 19-14 20-29 20-413 0-365-2-401-18-426-24-37-54-34-111 10-77 60-146 46-146-28 0-64 130-101 227-64 56 21 118 76 142 124 36 71 41 133 41 526v385l-27-1c-16 0-68-17-118-37z"/><path d="m1303 2889c-111-44-134-69-64-69 69 0 71-9 71-287 0-230-1-244-20-263-11-11-33-20-50-20-23 0-30-4-30-20 0-20 5-20 178-18 147 3 177 5 177 18 0 8-14 17-34 21-18 4-43 17-55 28-20 20-21 33-24 227l-3 205 26 45c39 66 63 74 126 39 57-31 85-26 114 18 52 80-78 156-162 95-32-24-72-70-91-103-9-16-11-7-12 53 0 68-1 72-22 71-13 0-69-18-125-40z"/><path d="m1840 2890c-52-22-96-40-97-40-2 0-3-7-3-16 0-13 7-15 33-10 21 4 40 1 52-8 19-14 20-28 20-275 0-248-1-261-20-275-11-9-32-16-47-16-21 0-28-5-28-20 0-20 5-20 173-18 144 3 172 5 172 18 0 9-14 17-38 21-71 11-72 13-75 260-4 220-4 221 20 246 30 32 94 69 135 78 46 9 102-20 119-61 11-25 14-91 14-262 0-255 1-250-68-261-23-4-37-12-37-21 0-13 29-15 178-18 166-2 178-1 175 15-2 12-16 20-41 24-21 3-43 11-50 18-9 9-12 78-12 249v237l48 32c97 65 175 62 214-9 16-29 18-60 18-259 0-209-1-229-19-248-12-13-31-21-53-21-26 0-33-4-33-20 0-20 5-20 173-18 143 3 172 5 172 18 0 8-14 17-34 21-65 14-65 14-71 287-5 224-7 251-26 293-28 61-73 91-141 97-73 6-135-19-202-82-49-47-54-50-65-32-55 92-90 116-171 116-64 0-122-27-183-84-27-25-52-46-56-46-3 0-6 29-6 65 0 61-1 65-22 65-13-1-66-19-118-40z"/><path d="m3203 2909c-90-35-163-136-163-226 0-69 57-173 106-195l24-11-46-49c-80-86-88-140-28-187l28-22-46-47c-119-124-119-190-2-243 147-67 309-64 452 8 144 72 203 232 117 317-48 48-123 66-281 67-151 0-198 12-202 50-2 14 6 36 17 50 18 23 25 24 123 24 96 0 109 2 164 30 118 61 160 183 108 318-5 14 1 17 40 17 57 0 93 28 76 60-9 17-21 19-93 19-55 0-105 6-152 20-88 26-174 26-242 0zm184-51c44-40 66-103 66-193 1-89-12-127-56-159-35-26-99-26-135 1-88 63-108 276-34 345 15 14 34 28 42 31 29 12 92-1 117-25zm130-664c87-9 126-62 93-124-52-98-391-121-485-34-32 30-31 58 4 120l29 50 154-3c84-2 176-6 205-9z"/><path d="m3742 2893c2-10 18-21 38-26 19-5 48-21 63-35 28-27 173-229 183-257 4-8-30-62-83-132-98-131-156-193-178-193-8 0-15-9-15-20 0-20 5-21 113-18 92 2 112 6 112 18 0 8-10 16-22 18-36 5-47 27-32 63 13 33 133 192 149 197 10 4 150-203 150-222 0-17-19-33-45-38-11-2-20-10-20-18 0-13 26-15 165-15 137 0 165 2 165 14 0 8-14 18-31 23-17 4-45 22-62 39-42 43-232 315-232 332 0 24 95 151 149 199 29 26 62 48 74 50s23 11 25 21c3 15-8 17-117 17-100 0-121-3-121-15 0-8 11-17 25-21 18-4 25-13 25-29 0-27-90-166-105-162-14 5-95 139-95 159 0 10 11 23 25 28s25 16 25 25c0 13-24 15-166 15-150 0-165-2-162-17z"/></g></svg>